<mxfile host="app.diagrams.net" modified="2021-02-11T00:06:31.763Z" agent="5.0 (X11; Linux x86_64) AppleWebKit/537.36 (KHTML, like Gecko) Chrome/88.0.4324.146 Safari/537.36" etag="nOjgT4SG_5C2hqk1t7ne" version="13.7.7" type="github">
  <diagram id="C5RBs43oDa-KdzZeNtuy" name="Page-1">
    <mxGraphModel dx="1935" dy="452" grid="1" gridSize="10" guides="1" tooltips="1" connect="1" arrows="1" fold="1" page="1" pageScale="1" pageWidth="827" pageHeight="1169" math="0" shadow="0">
      <root>
        <mxCell id="WIyWlLk6GJQsqaUBKTNV-0" />
        <mxCell id="WIyWlLk6GJQsqaUBKTNV-1" parent="WIyWlLk6GJQsqaUBKTNV-0" />
        <mxCell id="WIyWlLk6GJQsqaUBKTNV-3" value="Aluno" style="rounded=1;whiteSpace=wrap;html=1;fontSize=12;glass=0;strokeWidth=1;shadow=0;" parent="WIyWlLk6GJQsqaUBKTNV-1" vertex="1">
          <mxGeometry x="190" y="120" width="230" height="80" as="geometry" />
        </mxCell>
        <mxCell id="6PH-ZL3J4yABsdgLi1e8-20" style="edgeStyle=none;rounded=0;orthogonalLoop=1;jettySize=auto;html=1;exitX=1;exitY=0;exitDx=0;exitDy=0;entryX=0;entryY=1;entryDx=0;entryDy=0;" edge="1" parent="WIyWlLk6GJQsqaUBKTNV-1" source="6PH-ZL3J4yABsdgLi1e8-0" target="WIyWlLk6GJQsqaUBKTNV-3">
          <mxGeometry relative="1" as="geometry" />
        </mxCell>
        <mxCell id="6PH-ZL3J4yABsdgLi1e8-0" value="nome" style="ellipse;whiteSpace=wrap;html=1;" vertex="1" parent="WIyWlLk6GJQsqaUBKTNV-1">
          <mxGeometry x="110" y="210" width="60" height="30" as="geometry" />
        </mxCell>
        <mxCell id="6PH-ZL3J4yABsdgLi1e8-21" style="edgeStyle=none;rounded=0;orthogonalLoop=1;jettySize=auto;html=1;exitX=0.5;exitY=0;exitDx=0;exitDy=0;entryX=0.161;entryY=1.025;entryDx=0;entryDy=0;entryPerimeter=0;" edge="1" parent="WIyWlLk6GJQsqaUBKTNV-1" source="6PH-ZL3J4yABsdgLi1e8-1" target="WIyWlLk6GJQsqaUBKTNV-3">
          <mxGeometry relative="1" as="geometry" />
        </mxCell>
        <mxCell id="6PH-ZL3J4yABsdgLi1e8-1" value="ra" style="ellipse;whiteSpace=wrap;html=1;" vertex="1" parent="WIyWlLk6GJQsqaUBKTNV-1">
          <mxGeometry x="190" y="270" width="60" height="30" as="geometry" />
        </mxCell>
        <mxCell id="6PH-ZL3J4yABsdgLi1e8-22" style="edgeStyle=none;rounded=0;orthogonalLoop=1;jettySize=auto;html=1;exitX=0.5;exitY=0;exitDx=0;exitDy=0;entryX=0.6;entryY=1.013;entryDx=0;entryDy=0;entryPerimeter=0;" edge="1" parent="WIyWlLk6GJQsqaUBKTNV-1" source="6PH-ZL3J4yABsdgLi1e8-2" target="WIyWlLk6GJQsqaUBKTNV-3">
          <mxGeometry relative="1" as="geometry" />
        </mxCell>
        <mxCell id="6PH-ZL3J4yABsdgLi1e8-2" value="CR" style="ellipse;whiteSpace=wrap;html=1;" vertex="1" parent="WIyWlLk6GJQsqaUBKTNV-1">
          <mxGeometry x="330" y="260" width="60" height="30" as="geometry" />
        </mxCell>
        <mxCell id="6PH-ZL3J4yABsdgLi1e8-24" style="edgeStyle=none;rounded=0;orthogonalLoop=1;jettySize=auto;html=1;exitX=0;exitY=0.5;exitDx=0;exitDy=0;entryX=1;entryY=0.925;entryDx=0;entryDy=0;entryPerimeter=0;" edge="1" parent="WIyWlLk6GJQsqaUBKTNV-1" source="6PH-ZL3J4yABsdgLi1e8-3" target="WIyWlLk6GJQsqaUBKTNV-3">
          <mxGeometry relative="1" as="geometry" />
        </mxCell>
        <mxCell id="6PH-ZL3J4yABsdgLi1e8-3" value="cpf" style="ellipse;whiteSpace=wrap;html=1;" vertex="1" parent="WIyWlLk6GJQsqaUBKTNV-1">
          <mxGeometry x="470" y="218" width="60" height="30" as="geometry" />
        </mxCell>
        <mxCell id="6PH-ZL3J4yABsdgLi1e8-23" style="edgeStyle=none;rounded=0;orthogonalLoop=1;jettySize=auto;html=1;exitX=0;exitY=0.5;exitDx=0;exitDy=0;entryX=0.996;entryY=0.638;entryDx=0;entryDy=0;entryPerimeter=0;" edge="1" parent="WIyWlLk6GJQsqaUBKTNV-1" source="6PH-ZL3J4yABsdgLi1e8-4" target="WIyWlLk6GJQsqaUBKTNV-3">
          <mxGeometry relative="1" as="geometry" />
        </mxCell>
        <mxCell id="6PH-ZL3J4yABsdgLi1e8-4" value="telefone" style="ellipse;whiteSpace=wrap;html=1;" vertex="1" parent="WIyWlLk6GJQsqaUBKTNV-1">
          <mxGeometry x="480" y="129" width="60" height="30" as="geometry" />
        </mxCell>
        <mxCell id="6PH-ZL3J4yABsdgLi1e8-17" style="edgeStyle=none;rounded=0;orthogonalLoop=1;jettySize=auto;html=1;exitX=0.5;exitY=1;exitDx=0;exitDy=0;entryX=0.75;entryY=0;entryDx=0;entryDy=0;" edge="1" parent="WIyWlLk6GJQsqaUBKTNV-1" source="6PH-ZL3J4yABsdgLi1e8-5" target="WIyWlLk6GJQsqaUBKTNV-3">
          <mxGeometry relative="1" as="geometry" />
        </mxCell>
        <mxCell id="6PH-ZL3J4yABsdgLi1e8-5" value="email" style="ellipse;whiteSpace=wrap;html=1;" vertex="1" parent="WIyWlLk6GJQsqaUBKTNV-1">
          <mxGeometry x="331" y="60" width="60" height="30" as="geometry" />
        </mxCell>
        <mxCell id="6PH-ZL3J4yABsdgLi1e8-18" style="edgeStyle=none;rounded=0;orthogonalLoop=1;jettySize=auto;html=1;exitX=0.5;exitY=1;exitDx=0;exitDy=0;entryX=0.287;entryY=0.025;entryDx=0;entryDy=0;entryPerimeter=0;" edge="1" parent="WIyWlLk6GJQsqaUBKTNV-1" source="6PH-ZL3J4yABsdgLi1e8-6" target="WIyWlLk6GJQsqaUBKTNV-3">
          <mxGeometry relative="1" as="geometry" />
        </mxCell>
        <mxCell id="6PH-ZL3J4yABsdgLi1e8-6" value="curso" style="ellipse;whiteSpace=wrap;html=1;" vertex="1" parent="WIyWlLk6GJQsqaUBKTNV-1">
          <mxGeometry x="210" y="60" width="60" height="30" as="geometry" />
        </mxCell>
        <mxCell id="6PH-ZL3J4yABsdgLi1e8-16" style="edgeStyle=none;rounded=0;orthogonalLoop=1;jettySize=auto;html=1;exitX=0;exitY=0.5;exitDx=0;exitDy=0;entryX=1;entryY=0.25;entryDx=0;entryDy=0;" edge="1" parent="WIyWlLk6GJQsqaUBKTNV-1" source="6PH-ZL3J4yABsdgLi1e8-7" target="WIyWlLk6GJQsqaUBKTNV-3">
          <mxGeometry relative="1" as="geometry" />
        </mxCell>
        <mxCell id="6PH-ZL3J4yABsdgLi1e8-7" value="endereÃ§o" style="ellipse;whiteSpace=wrap;html=1;" vertex="1" parent="WIyWlLk6GJQsqaUBKTNV-1">
          <mxGeometry x="450" y="60" width="60" height="30" as="geometry" />
        </mxCell>
        <mxCell id="6PH-ZL3J4yABsdgLi1e8-19" style="edgeStyle=none;rounded=0;orthogonalLoop=1;jettySize=auto;html=1;exitX=1;exitY=1;exitDx=0;exitDy=0;entryX=-0.009;entryY=0.15;entryDx=0;entryDy=0;entryPerimeter=0;" edge="1" parent="WIyWlLk6GJQsqaUBKTNV-1" source="6PH-ZL3J4yABsdgLi1e8-8" target="WIyWlLk6GJQsqaUBKTNV-3">
          <mxGeometry relative="1" as="geometry" />
        </mxCell>
        <mxCell id="6PH-ZL3J4yABsdgLi1e8-8" value="data de nasc" style="ellipse;whiteSpace=wrap;html=1;" vertex="1" parent="WIyWlLk6GJQsqaUBKTNV-1">
          <mxGeometry x="110" y="80" width="60" height="30" as="geometry" />
        </mxCell>
        <mxCell id="6PH-ZL3J4yABsdgLi1e8-26" style="edgeStyle=none;rounded=0;orthogonalLoop=1;jettySize=auto;html=1;exitX=1;exitY=0.5;exitDx=0;exitDy=0;entryX=0;entryY=0;entryDx=0;entryDy=0;" edge="1" parent="WIyWlLk6GJQsqaUBKTNV-1" source="6PH-ZL3J4yABsdgLi1e8-25" target="6PH-ZL3J4yABsdgLi1e8-8">
          <mxGeometry relative="1" as="geometry" />
        </mxCell>
        <mxCell id="6PH-ZL3J4yABsdgLi1e8-25" value="idade" style="ellipse;whiteSpace=wrap;html=1;" vertex="1" parent="WIyWlLk6GJQsqaUBKTNV-1">
          <mxGeometry x="30" y="30" width="60" height="30" as="geometry" />
        </mxCell>
        <mxCell id="6PH-ZL3J4yABsdgLi1e8-30" style="edgeStyle=none;rounded=0;orthogonalLoop=1;jettySize=auto;html=1;exitX=1;exitY=0;exitDx=0;exitDy=0;" edge="1" parent="WIyWlLk6GJQsqaUBKTNV-1" source="6PH-ZL3J4yABsdgLi1e8-27">
          <mxGeometry relative="1" as="geometry">
            <mxPoint x="110" y="220" as="targetPoint" />
          </mxGeometry>
        </mxCell>
        <mxCell id="6PH-ZL3J4yABsdgLi1e8-27" value="ultimo" style="ellipse;whiteSpace=wrap;html=1;" vertex="1" parent="WIyWlLk6GJQsqaUBKTNV-1">
          <mxGeometry x="30" y="260" width="60" height="30" as="geometry" />
        </mxCell>
        <mxCell id="6PH-ZL3J4yABsdgLi1e8-29" style="edgeStyle=none;rounded=0;orthogonalLoop=1;jettySize=auto;html=1;exitX=1;exitY=0.5;exitDx=0;exitDy=0;entryX=0;entryY=0.5;entryDx=0;entryDy=0;" edge="1" parent="WIyWlLk6GJQsqaUBKTNV-1" source="6PH-ZL3J4yABsdgLi1e8-28" target="6PH-ZL3J4yABsdgLi1e8-0">
          <mxGeometry relative="1" as="geometry" />
        </mxCell>
        <mxCell id="6PH-ZL3J4yABsdgLi1e8-28" value="primeiro" style="ellipse;whiteSpace=wrap;html=1;" vertex="1" parent="WIyWlLk6GJQsqaUBKTNV-1">
          <mxGeometry x="20" y="180" width="60" height="30" as="geometry" />
        </mxCell>
        <mxCell id="6PH-ZL3J4yABsdgLi1e8-31" value="atributo derivado" style="text;html=1;align=center;verticalAlign=middle;resizable=0;points=[];autosize=1;" vertex="1" parent="WIyWlLk6GJQsqaUBKTNV-1">
          <mxGeometry x="10" y="10" width="100" height="20" as="geometry" />
        </mxCell>
        <mxCell id="6PH-ZL3J4yABsdgLi1e8-32" value="atributo composto" style="text;html=1;align=center;verticalAlign=middle;resizable=0;points=[];autosize=1;" vertex="1" parent="WIyWlLk6GJQsqaUBKTNV-1">
          <mxGeometry x="-5" y="150" width="110" height="20" as="geometry" />
        </mxCell>
        <mxCell id="6PH-ZL3J4yABsdgLi1e8-33" value="Disciplina" style="rounded=1;whiteSpace=wrap;html=1;fontSize=12;glass=0;strokeWidth=1;shadow=0;" vertex="1" parent="WIyWlLk6GJQsqaUBKTNV-1">
          <mxGeometry x="405" y="450" width="230" height="80" as="geometry" />
        </mxCell>
        <mxCell id="6PH-ZL3J4yABsdgLi1e8-36" style="edgeStyle=none;rounded=0;orthogonalLoop=1;jettySize=auto;html=1;exitX=0.5;exitY=0;exitDx=0;exitDy=0;entryX=0.161;entryY=1.025;entryDx=0;entryDy=0;entryPerimeter=0;" edge="1" parent="WIyWlLk6GJQsqaUBKTNV-1" source="6PH-ZL3J4yABsdgLi1e8-37" target="6PH-ZL3J4yABsdgLi1e8-33">
          <mxGeometry relative="1" as="geometry" />
        </mxCell>
        <mxCell id="6PH-ZL3J4yABsdgLi1e8-37" value="codigo" style="ellipse;whiteSpace=wrap;html=1;" vertex="1" parent="WIyWlLk6GJQsqaUBKTNV-1">
          <mxGeometry x="405" y="600" width="60" height="30" as="geometry" />
        </mxCell>
        <mxCell id="6PH-ZL3J4yABsdgLi1e8-38" style="edgeStyle=none;rounded=0;orthogonalLoop=1;jettySize=auto;html=1;exitX=0.5;exitY=0;exitDx=0;exitDy=0;entryX=0.6;entryY=1.013;entryDx=0;entryDy=0;entryPerimeter=0;" edge="1" parent="WIyWlLk6GJQsqaUBKTNV-1" source="6PH-ZL3J4yABsdgLi1e8-39" target="6PH-ZL3J4yABsdgLi1e8-33">
          <mxGeometry relative="1" as="geometry" />
        </mxCell>
        <mxCell id="6PH-ZL3J4yABsdgLi1e8-39" value="nome" style="ellipse;whiteSpace=wrap;html=1;" vertex="1" parent="WIyWlLk6GJQsqaUBKTNV-1">
          <mxGeometry x="545" y="590" width="60" height="30" as="geometry" />
        </mxCell>
        <mxCell id="6PH-ZL3J4yABsdgLi1e8-40" style="edgeStyle=none;rounded=0;orthogonalLoop=1;jettySize=auto;html=1;exitX=0;exitY=0.5;exitDx=0;exitDy=0;entryX=1;entryY=0.925;entryDx=0;entryDy=0;entryPerimeter=0;" edge="1" parent="WIyWlLk6GJQsqaUBKTNV-1" source="6PH-ZL3J4yABsdgLi1e8-41" target="6PH-ZL3J4yABsdgLi1e8-33">
          <mxGeometry relative="1" as="geometry" />
        </mxCell>
        <mxCell id="6PH-ZL3J4yABsdgLi1e8-41" value="professor" style="ellipse;whiteSpace=wrap;html=1;" vertex="1" parent="WIyWlLk6GJQsqaUBKTNV-1">
          <mxGeometry x="685" y="548" width="60" height="30" as="geometry" />
        </mxCell>
        <mxCell id="6PH-ZL3J4yABsdgLi1e8-42" style="edgeStyle=none;rounded=0;orthogonalLoop=1;jettySize=auto;html=1;exitX=0;exitY=0.5;exitDx=0;exitDy=0;entryX=0.996;entryY=0.638;entryDx=0;entryDy=0;entryPerimeter=0;" edge="1" parent="WIyWlLk6GJQsqaUBKTNV-1" source="6PH-ZL3J4yABsdgLi1e8-43" target="6PH-ZL3J4yABsdgLi1e8-33">
          <mxGeometry relative="1" as="geometry" />
        </mxCell>
        <mxCell id="6PH-ZL3J4yABsdgLi1e8-43" value="tpi" style="ellipse;whiteSpace=wrap;html=1;" vertex="1" parent="WIyWlLk6GJQsqaUBKTNV-1">
          <mxGeometry x="695" y="459" width="60" height="30" as="geometry" />
        </mxCell>
        <mxCell id="6PH-ZL3J4yABsdgLi1e8-44" style="edgeStyle=none;rounded=0;orthogonalLoop=1;jettySize=auto;html=1;exitX=0.5;exitY=1;exitDx=0;exitDy=0;entryX=0.75;entryY=0;entryDx=0;entryDy=0;" edge="1" parent="WIyWlLk6GJQsqaUBKTNV-1" source="6PH-ZL3J4yABsdgLi1e8-45" target="6PH-ZL3J4yABsdgLi1e8-33">
          <mxGeometry relative="1" as="geometry" />
        </mxCell>
        <mxCell id="6PH-ZL3J4yABsdgLi1e8-45" value="creditos" style="ellipse;whiteSpace=wrap;html=1;" vertex="1" parent="WIyWlLk6GJQsqaUBKTNV-1">
          <mxGeometry x="546" y="390" width="60" height="30" as="geometry" />
        </mxCell>
        <mxCell id="6PH-ZL3J4yABsdgLi1e8-46" style="edgeStyle=none;rounded=0;orthogonalLoop=1;jettySize=auto;html=1;exitX=0.5;exitY=1;exitDx=0;exitDy=0;entryX=0.287;entryY=0.025;entryDx=0;entryDy=0;entryPerimeter=0;" edge="1" parent="WIyWlLk6GJQsqaUBKTNV-1" source="6PH-ZL3J4yABsdgLi1e8-47" target="6PH-ZL3J4yABsdgLi1e8-33">
          <mxGeometry relative="1" as="geometry" />
        </mxCell>
        <mxCell id="6PH-ZL3J4yABsdgLi1e8-47" value="curso" style="ellipse;whiteSpace=wrap;html=1;" vertex="1" parent="WIyWlLk6GJQsqaUBKTNV-1">
          <mxGeometry x="425" y="390" width="60" height="30" as="geometry" />
        </mxCell>
        <mxCell id="6PH-ZL3J4yABsdgLi1e8-60" value="turma" style="rounded=1;whiteSpace=wrap;html=1;fontSize=12;glass=0;strokeWidth=1;shadow=0;" vertex="1" parent="WIyWlLk6GJQsqaUBKTNV-1">
          <mxGeometry x="-80" y="468" width="230" height="80" as="geometry" />
        </mxCell>
        <mxCell id="6PH-ZL3J4yABsdgLi1e8-62" style="edgeStyle=none;rounded=0;orthogonalLoop=1;jettySize=auto;html=1;exitX=0;exitY=1;exitDx=0;exitDy=0;" edge="1" parent="WIyWlLk6GJQsqaUBKTNV-1" source="6PH-ZL3J4yABsdgLi1e8-61" target="6PH-ZL3J4yABsdgLi1e8-60">
          <mxGeometry relative="1" as="geometry" />
        </mxCell>
        <mxCell id="6PH-ZL3J4yABsdgLi1e8-61" value="num vagas" style="ellipse;whiteSpace=wrap;html=1;" vertex="1" parent="WIyWlLk6GJQsqaUBKTNV-1">
          <mxGeometry x="190" y="420" width="60" height="30" as="geometry" />
        </mxCell>
      </root>
    </mxGraphModel>
  </diagram>
</mxfile>
